<mxfile host="app.diagrams.net" modified="2022-10-08T07:16:22.026Z" agent="5.0 (Windows NT 10.0; Win64; x64) AppleWebKit/537.36 (KHTML, like Gecko) Chrome/101.0.4951.64 Safari/537.36 Edg/101.0.1210.47" etag="hb8o3-UYL9tXqagZ8ykb" version="20.0.4" type="github">
  <diagram id="QMHIJw3UMFE8tI5QXMmM" name="第 1 页">
    <mxGraphModel dx="981" dy="526" grid="1" gridSize="10" guides="1" tooltips="1" connect="1" arrows="1" fold="1" page="1" pageScale="1" pageWidth="827" pageHeight="1169" math="0" shadow="0">
      <root>
        <mxCell id="0" />
        <mxCell id="1" parent="0" />
        <mxCell id="wKEIk703xPh8sqZxBv3l-17" value="" style="edgeStyle=orthogonalEdgeStyle;rounded=0;orthogonalLoop=1;jettySize=auto;html=1;" parent="1" source="wKEIk703xPh8sqZxBv3l-6" target="wKEIk703xPh8sqZxBv3l-16" edge="1">
          <mxGeometry relative="1" as="geometry">
            <Array as="points">
              <mxPoint x="290" y="250" />
              <mxPoint x="290" y="250" />
            </Array>
          </mxGeometry>
        </mxCell>
        <mxCell id="wKEIk703xPh8sqZxBv3l-6" value="" style="rounded=1;whiteSpace=wrap;html=1;dashed=1;align=center;labelPosition=center;verticalLabelPosition=top;verticalAlign=bottom;" parent="1" vertex="1">
          <mxGeometry x="100" y="50" width="180" height="420" as="geometry" />
        </mxCell>
        <mxCell id="wKEIk703xPh8sqZxBv3l-7" value="&lt;b&gt;&lt;font style=&quot;font-size: 14px;&quot;&gt;公共数据库&lt;/font&gt;&lt;/b&gt;" style="text;html=1;align=center;verticalAlign=middle;resizable=0;points=[];autosize=1;strokeColor=none;fillColor=none;" parent="1" vertex="1">
          <mxGeometry x="135" y="55" width="90" height="30" as="geometry" />
        </mxCell>
        <mxCell id="wKEIk703xPh8sqZxBv3l-8" value="" style="rounded=0;whiteSpace=wrap;html=1;" parent="1" vertex="1">
          <mxGeometry x="115" y="90" width="155" height="70" as="geometry" />
        </mxCell>
        <mxCell id="wKEIk703xPh8sqZxBv3l-9" value="统一身份认证&lt;br&gt;数据" style="strokeWidth=1;html=1;shape=mxgraph.flowchart.direct_data;whiteSpace=wrap;align=center;" parent="1" vertex="1">
          <mxGeometry x="150" y="100" width="110" height="50" as="geometry" />
        </mxCell>
        <mxCell id="wKEIk703xPh8sqZxBv3l-10" value="&lt;b&gt;基础数据&lt;/b&gt;" style="text;html=1;strokeColor=none;fillColor=none;align=center;verticalAlign=middle;whiteSpace=wrap;rounded=0;" parent="1" vertex="1">
          <mxGeometry x="115" y="90" width="25" height="60" as="geometry" />
        </mxCell>
        <mxCell id="wKEIk703xPh8sqZxBv3l-11" value="" style="rounded=0;whiteSpace=wrap;html=1;" parent="1" vertex="1">
          <mxGeometry x="115" y="220" width="155" height="210" as="geometry" />
        </mxCell>
        <mxCell id="wKEIk703xPh8sqZxBv3l-12" value="工作流" style="strokeWidth=1;html=1;shape=mxgraph.flowchart.direct_data;whiteSpace=wrap;align=center;" parent="1" vertex="1">
          <mxGeometry x="150" y="230" width="110" height="50" as="geometry" />
        </mxCell>
        <mxCell id="wKEIk703xPh8sqZxBv3l-13" value="&lt;b&gt;服务数据&lt;/b&gt;" style="text;html=1;strokeColor=none;fillColor=none;align=center;verticalAlign=middle;whiteSpace=wrap;rounded=0;" parent="1" vertex="1">
          <mxGeometry x="115" y="295" width="25" height="60" as="geometry" />
        </mxCell>
        <mxCell id="wKEIk703xPh8sqZxBv3l-14" value="消息" style="strokeWidth=1;html=1;shape=mxgraph.flowchart.direct_data;whiteSpace=wrap;align=center;" parent="1" vertex="1">
          <mxGeometry x="150" y="300" width="110" height="50" as="geometry" />
        </mxCell>
        <mxCell id="wKEIk703xPh8sqZxBv3l-15" value="计算模型" style="strokeWidth=1;html=1;shape=mxgraph.flowchart.direct_data;whiteSpace=wrap;align=center;" parent="1" vertex="1">
          <mxGeometry x="150" y="370" width="110" height="50" as="geometry" />
        </mxCell>
        <mxCell id="wKEIk703xPh8sqZxBv3l-16" value="" style="rounded=0;whiteSpace=wrap;html=1;strokeWidth=1;" parent="1" vertex="1">
          <mxGeometry x="360" y="50" width="440" height="400" as="geometry" />
        </mxCell>
        <mxCell id="wKEIk703xPh8sqZxBv3l-18" value="&lt;b&gt;&lt;font style=&quot;font-size: 14px;&quot;&gt;安徽农担大数据中心数据库&lt;/font&gt;&lt;/b&gt;" style="text;html=1;strokeColor=none;fillColor=none;align=center;verticalAlign=middle;whiteSpace=wrap;rounded=0;" parent="1" vertex="1">
          <mxGeometry x="510" y="60" width="170" height="30" as="geometry" />
        </mxCell>
        <mxCell id="wKEIk703xPh8sqZxBv3l-19" value="" style="rounded=0;whiteSpace=wrap;html=1;strokeWidth=1;" parent="1" vertex="1">
          <mxGeometry x="430" y="130" width="350" height="100" as="geometry" />
        </mxCell>
        <mxCell id="wKEIk703xPh8sqZxBv3l-20" value="" style="rounded=0;whiteSpace=wrap;html=1;strokeWidth=1;" parent="1" vertex="1">
          <mxGeometry x="430" y="270" width="350" height="120" as="geometry" />
        </mxCell>
        <mxCell id="wKEIk703xPh8sqZxBv3l-21" value="账户&lt;br&gt;数据" style="strokeWidth=1;html=1;shape=mxgraph.flowchart.direct_data;whiteSpace=wrap;" parent="1" vertex="1">
          <mxGeometry x="450" y="150" width="70" height="50" as="geometry" />
        </mxCell>
        <mxCell id="wKEIk703xPh8sqZxBv3l-22" value="系统权&lt;br&gt;限数据" style="strokeWidth=1;html=1;shape=mxgraph.flowchart.direct_data;whiteSpace=wrap;" parent="1" vertex="1">
          <mxGeometry x="530" y="150" width="70" height="50" as="geometry" />
        </mxCell>
        <mxCell id="wKEIk703xPh8sqZxBv3l-24" value="数据&lt;br&gt;字典" style="strokeWidth=1;html=1;shape=mxgraph.flowchart.direct_data;whiteSpace=wrap;" parent="1" vertex="1">
          <mxGeometry x="610" y="150" width="70" height="50" as="geometry" />
        </mxCell>
        <mxCell id="wKEIk703xPh8sqZxBv3l-25" value="工商财政&lt;br&gt;数据" style="strokeWidth=1;html=1;shape=mxgraph.flowchart.direct_data;whiteSpace=wrap;" parent="1" vertex="1">
          <mxGeometry x="690" y="150" width="80" height="50" as="geometry" />
        </mxCell>
        <mxCell id="wKEIk703xPh8sqZxBv3l-26" value="&lt;b&gt;系统数据&lt;/b&gt;" style="text;html=1;strokeColor=none;fillColor=none;align=center;verticalAlign=middle;whiteSpace=wrap;rounded=0;" parent="1" vertex="1">
          <mxGeometry x="394" y="140" width="20" height="80" as="geometry" />
        </mxCell>
        <mxCell id="wKEIk703xPh8sqZxBv3l-27" value="&lt;font style=&quot;font-size: 12px;&quot;&gt;&lt;b&gt;业务数据&lt;/b&gt;&lt;/font&gt;" style="text;html=1;strokeColor=none;fillColor=none;align=center;verticalAlign=middle;whiteSpace=wrap;rounded=0;fontSize=14;" parent="1" vertex="1">
          <mxGeometry x="399" y="300" width="10" height="60" as="geometry" />
        </mxCell>
        <mxCell id="wKEIk703xPh8sqZxBv3l-28" value="用户数据" style="strokeWidth=1;html=1;shape=mxgraph.flowchart.database;whiteSpace=wrap;fontSize=12;" parent="1" vertex="1">
          <mxGeometry x="450" y="290" width="50" height="80" as="geometry" />
        </mxCell>
        <mxCell id="wKEIk703xPh8sqZxBv3l-29" value="访问数据" style="strokeWidth=1;html=1;shape=mxgraph.flowchart.database;whiteSpace=wrap;fontSize=12;" parent="1" vertex="1">
          <mxGeometry x="520" y="290" width="50" height="80" as="geometry" />
        </mxCell>
        <mxCell id="wKEIk703xPh8sqZxBv3l-30" value="发文数据" style="strokeWidth=1;html=1;shape=mxgraph.flowchart.database;whiteSpace=wrap;fontSize=12;" parent="1" vertex="1">
          <mxGeometry x="590" y="290" width="50" height="80" as="geometry" />
        </mxCell>
        <mxCell id="wKEIk703xPh8sqZxBv3l-31" value="签报数据" style="strokeWidth=1;html=1;shape=mxgraph.flowchart.database;whiteSpace=wrap;fontSize=12;" parent="1" vertex="1">
          <mxGeometry x="660" y="290" width="50" height="80" as="geometry" />
        </mxCell>
        <mxCell id="wKEIk703xPh8sqZxBv3l-36" value="报表数据" style="strokeWidth=1;html=1;shape=mxgraph.flowchart.database;whiteSpace=wrap;fontSize=12;" parent="1" vertex="1">
          <mxGeometry x="720" y="290" width="50" height="80" as="geometry" />
        </mxCell>
      </root>
    </mxGraphModel>
  </diagram>
</mxfile>
